<?xml version="1.0" encoding="UTF-8" standalone="no"?>
<!-- Created with Inkscape (http://www.inkscape.org/) -->

<svg
   version="1.1"
   id="svg2"
   xml:space="preserve"
   width="40"
   height="40"
   viewBox="0 0 40 39.999999"
   sodipodi:docname="female.svg"
   inkscape:version="1.1.2 (0a00cf5339, 2022-02-04)"
   xmlns:inkscape="http://www.inkscape.org/namespaces/inkscape"
   xmlns:sodipodi="http://sodipodi.sourceforge.net/DTD/sodipodi-0.dtd"
   xmlns="http://www.w3.org/2000/svg"
   xmlns:svg="http://www.w3.org/2000/svg"><defs
     id="defs6" /><sodipodi:namedview
     id="namedview4"
     pagecolor="#ffffff"
     bordercolor="#999999"
     borderopacity="1"
     inkscape:pageshadow="0"
     inkscape:pageopacity="0"
     inkscape:pagecheckerboard="0"
     showgrid="false"
     inkscape:zoom="9.4405331"
     inkscape:cx="33.36676"
     inkscape:cy="27.487855"
     inkscape:window-width="1846"
     inkscape:window-height="1016"
     inkscape:window-x="74"
     inkscape:window-y="27"
     inkscape:window-maximized="1"
     inkscape:current-layer="g8"
     fit-margin-top="0"
     fit-margin-left="0"
     fit-margin-right="0"
     fit-margin-bottom="0" /><g
     id="g8"
     inkscape:groupmode="layer"
     inkscape:label="ink_ext_XXXXXX"
     transform="matrix(1.3333333,0,0,-1.3333333,0,3334.6667)"><path
       d="m 15,2501.0001 c -8.2842638,0 -15,-6.7157 -15,-15 0,-8.2843 6.7157362,-15 15,-15 8.284265,0 15.000001,6.7157 15.000001,15 0,8.2843 -6.715736,15 -15.000001,15 z m 0,-1.1588 c -7.6443591,0 -13.841241,-6.1968 -13.841241,-13.8412 0,-7.6443 6.1968819,-13.8412 13.841241,-13.8412 7.644204,0 13.841242,6.1969 13.841242,13.8412 0,7.6444 -6.197038,13.8412 -13.841242,13.8412"
       style="fill:#c084ba;fill-opacity:1;fill-rule:evenodd;stroke:none;stroke-width:0.00155392"
       id="path22" /><path
       d="m 14.604838,2489.5404 h -1.57521 c -0.555371,0 -1.032114,-0.1563 -1.3098,-0.4292 -0.27753,-0.273 -0.27753,-0.5855 0,-0.8585 l 0.802134,-0.7885 0.801979,-0.7885 -1.033824,-2.9714 c 1.260697,-0.7441 2.356211,-2.6336 2.709883,-3.3851 0.04025,0.055 0.07257,0.123 0.09883,0.201 0.431057,0.8454 1.451051,2.4995 2.610898,3.1841 l -1.033824,2.9714 0.802134,0.7885 0.801979,0.7885 c 0.277686,0.273 0.277686,0.5855 0,0.8585 -0.277686,0.2729 -0.754429,0.4292 -1.309645,0.4292 h -0.790479 -1.575055"
       style="fill:#c084ba;fill-opacity:1;fill-rule:evenodd;stroke:none;stroke-width:0.00155392"
       id="path24" /><path
       d="m 22.320212,2486.4789 c -0.582565,-1.2011 -4.7219,-1.3027 -7.320212,-1.3131 -2.598466,0.01 -6.7376461,0.112 -7.3203665,1.3131 -0.3093857,-0.039 1.5203564,2.1408 1.8358024,5.8554 0.228271,2.6883 1.5916811,5.3788 5.4845641,5.7096 3.892884,-0.3308 5.256294,-3.0213 5.484565,-5.7096 0.315446,-3.7146 2.145188,-5.8946 1.835647,-5.8554"
       style="fill:#c084ba;fill-opacity:1;fill-rule:evenodd;stroke:none;stroke-width:0.00155392"
       id="path26" /><path
       d="m 11.958355,2483.5503 c -0.574174,-0.507 -1.050761,-3.6125 0.672071,-3.1154 1.244846,0.3593 1.963535,-0.8829 2.369574,-1.552 v -7.8828 c -4.053714,0 -7.7312233,1.6086 -10.430695,4.2216 l 0.6408371,4.2382 c 0.2251631,1.4888 0.4257743,2.144 1.326427,2.5352 1.4406403,0.6257 3.8422249,1.1654 5.4217859,1.5552"
       style="fill:#c084ba;fill-opacity:1;fill-rule:evenodd;stroke:none;stroke-width:0.00155392"
       id="path28" /><path
       d="m 18.041646,2483.5503 c 0.574173,-0.507 1.050761,-3.6125 -0.672227,-3.1154 -1.244846,0.3593 -1.963379,-0.8829 -2.369419,-1.552 v -7.8828 c 4.053714,0 7.731069,1.6086 10.430696,4.2216 l -0.640993,4.2382 c -0.225007,1.4888 -0.425619,2.144 -1.326271,2.5352 -1.440641,0.6257 -3.842226,1.1654 -5.421786,1.5552"
       style="fill:#c084ba;fill-opacity:1;fill-rule:evenodd;stroke:none;stroke-width:0.00155392"
       id="path30" /></g></svg>
