<?xml version="1.0" encoding="UTF-8" standalone="no"?>
<!-- Created with Inkscape (http://www.inkscape.org/) -->

<svg
   version="1.1"
   id="svg2"
   xml:space="preserve"
   width="40"
   height="40.000401"
   viewBox="0 0 40 40.0004"
   sodipodi:docname="male.svg"
   inkscape:version="1.1.2 (0a00cf5339, 2022-02-04)"
   xmlns:inkscape="http://www.inkscape.org/namespaces/inkscape"
   xmlns:sodipodi="http://sodipodi.sourceforge.net/DTD/sodipodi-0.dtd"
   xmlns="http://www.w3.org/2000/svg"
   xmlns:svg="http://www.w3.org/2000/svg"><defs
     id="defs6" /><sodipodi:namedview
     id="namedview4"
     pagecolor="#ffffff"
     bordercolor="#999999"
     borderopacity="1"
     inkscape:pageshadow="0"
     inkscape:pageopacity="0"
     inkscape:pagecheckerboard="0"
     showgrid="false"
     inkscape:zoom="9.4405331"
     inkscape:cx="16.948195"
     inkscape:cy="28.017486"
     inkscape:window-width="1846"
     inkscape:window-height="1016"
     inkscape:window-x="74"
     inkscape:window-y="27"
     inkscape:window-maximized="1"
     inkscape:current-layer="g8"
     fit-margin-top="0"
     fit-margin-left="0"
     fit-margin-right="0"
     fit-margin-bottom="0" /><g
     id="g8"
     inkscape:groupmode="layer"
     inkscape:label="ink_ext_XXXXXX"
     transform="matrix(1.3333333,0,0,-1.3333333,0,3334.6667)"><path
       d="m 9.8940747,2483.5504 5.1217833,-9.2689 6.22e-4,10e-4 5.122343,9.2679 c 3.845642,-0.7372 5.635602,-0.2305 5.882054,-4.2403 v -1.6027 -1.8815 c -2.740494,-2.9671 -6.663366,-4.8258 -11.020869,-4.8258 -4.357503,0 -8.2803283,1.8587 -11.0208221,4.8258 v 1.882 c 0.00166,0.1961 0.00292,0.3766 0.00292,0.538 0,5.1585 1.7764106,4.5258 5.9119675,5.3045"
       style="fill:#8489c0;fill-opacity:1;fill-rule:evenodd;stroke:none;stroke-width:0.00155392"
       id="path12" /><path
       d="m 10.454947,2492.151 c -0.4921424,0.1967 -1.2260434,0.1324 -1.0972856,-0.6402 0.3347455,-1.1395 0.1351911,-2.0279 1.2097896,-1.8591 0.41847,-2.913 2.251319,-5.1065 4.449029,-5.1065 2.197709,0 4.030558,2.1935 4.448874,5.1065 1.074691,-0.1688 0.875167,0.7196 1.209882,1.8591 0.12882,0.7726 -0.605097,0.8369 -1.097379,0.6402 0.07723,1.7618 0.595307,4.8835 -2.127938,4.8577 -0.844245,1.7275 -3.533149,0.9036 -4.953121,0.3053 -2.020873,-0.8513 -2.375633,-2.2906 -2.041851,-5.163"
       style="fill:#8489c0;fill-opacity:1;fill-rule:evenodd;stroke:none;stroke-width:0.00155392"
       id="path14" /><path
       d="m 15.759875,2480.3794 0.455299,0.7886 0.455143,0.7885 c 0.157723,0.273 0.157723,0.5854 0,0.8584 -0.157567,0.273 -0.428105,0.4292 -0.743395,0.4292 H 15.01648 14.105882 c -0.315135,0 -0.585828,-0.1562 -0.743395,-0.4292 -0.157568,-0.273 -0.157568,-0.5854 0,-0.8584 l 0.455299,-0.7885 0.455298,-0.7886 c 0.157568,-0.2729 0.428105,-0.4292 0.743396,-0.4292 0.315135,0 0.585828,0.1563 0.743395,0.4292"
       style="fill:#8489c0;fill-opacity:1;fill-rule:evenodd;stroke:none;stroke-width:0.00155392"
       id="path16" /><path
       d="m 15.759875,2480.3794 0.455299,-4.5693 0.455143,-4.5695 c 0.005,-0.048 0.0096,-0.097 0.01414,-0.1458 -0.55304,-0.062 -1.114938,-0.095 -1.68445,-0.095 -0.558323,0 -1.109344,0.031 -1.651817,0.091 0.0047,0.05 0.0093,0.1 0.0143,0.1495 l 0.455299,4.5695 0.455298,4.5693 c 0.157568,1.5819 0.428105,2.4874 0.743396,2.4874 0.315135,0 0.585828,-0.9055 0.743395,-2.4874"
       style="fill:#8489c0;fill-opacity:1;fill-rule:evenodd;stroke:none;stroke-width:0.00155392"
       id="path18" /><path
       d="M 15.000008,2501.0001 C 6.7157327,2501.0001 0,2494.2844 0,2486.0001 c 0,-8.2843 6.7157327,-15 15.000008,-15 8.28426,0 14.999993,6.7157 14.999993,15 0,8.2843 -6.715733,15 -14.999993,15 z m 0,-1.1588 c -7.6442777,0 -13.841203,-6.1968 -13.841203,-13.8412 0,-7.6443 6.1969253,-13.8412 13.841203,-13.8412 7.644356,0 13.841234,6.1969 13.841234,13.8412 0,7.6444 -6.196878,13.8412 -13.841234,13.8412"
       style="fill:#8489c0;fill-opacity:1;fill-rule:evenodd;stroke:none;stroke-width:0.00155392"
       id="path20" /></g></svg>
